<?xml version="1.0" standalone="no"?><!DOCTYPE svg PUBLIC "-//W3C//DTD SVG 1.1//EN" "http://www.w3.org/Graphics/SVG/1.1/DTD/svg11.dtd"><svg t="1701103758491" class="icon" viewBox="0 0 1024 1024" version="1.1" xmlns="http://www.w3.org/2000/svg" p-id="1477" xmlns:xlink="http://www.w3.org/1999/xlink" width="200" height="200"><path d="M268.77759254 49.9463572l163.31480582 166.97348228h159.76217814l163.31480584-166.92045717a49.63073299 49.63073299 0 0 1 71.31766765 0 52.33497187 52.33497187 0 0 1 0 72.85537137l-92.15621207 94.0650858h105.09413742c46.76742167 0 91.6259696 18.98269434 124.66010078 52.75916554 33.08715485 33.7764712 51.6456555 79.64248039 51.64565551 127.41736333v411.89266591c0 47.82790804-18.55850065 93.64089212-51.64565551 127.47038844a174.39688255 174.39688255 0 0 1-124.66010078 52.75916554H184.57502466a174.39688255 174.39688255 0 0 1-124.66010078-52.75916554A182.24447649 182.24447649 0 0 1 8.26926837 808.9360106v-411.89266594c0-47.77488292 18.55850065-93.64089212 51.64565551-127.4173633a174.39688255 174.39688255 0 0 1 124.66010078-52.75916556h104.98808863L197.56597513 122.74870491a52.2819482 52.2819482 0 0 1-13.04397559-49.78980689 50.95634059 50.95634059 0 0 1 35.63232129-36.42768497 49.6837581 49.6837581 0 0 1 48.67629683 13.36212048z m570.6473828 269.89362474H184.57502466c-38.91982772 0-71.4767401 30.22384351-75.18844022 69.83298615l-0.37117003 7.42340026v411.89266591c0 39.76821508 29.58755228 73.06746894 68.29528244 76.88521784l7.26432781 0.37117002h654.84995068c38.91982772 0 71.4767401-30.22384351 75.18844022-69.83298761l0.37117003-7.42340025v-411.89266591c0-42.63152785-33.82949487-77.20336276-75.55961025-77.20336276zM310.50770649 474.35275622a50.90331548 50.90331548 0 0 1 50.37307446 51.43355794v103.02619123a50.90331548 50.90331548 0 0 1-50.37307446 51.43355938 50.90331548 50.90331548 0 0 1-50.37307302-51.43355938V525.78631416a50.90331548 50.90331548 0 0 1 50.37307302-51.48658307z m402.98458702 0a50.90331548 50.90331548 0 0 1 50.37307302 51.43355794v103.02619123a50.90331548 50.90331548 0 0 1-50.37307302 51.43355938 50.90331548 50.90331548 0 0 1-50.37307446-51.43355938V525.78631416a50.90331548 50.90331548 0 0 1 50.37307446-51.48658307z" p-id="1478"></path></svg>