<?xml version="1.0" standalone="no"?><!DOCTYPE svg PUBLIC "-//W3C//DTD SVG 1.1//EN" "http://www.w3.org/Graphics/SVG/1.1/DTD/svg11.dtd"><svg t="1700970698056" class="icon" viewBox="0 0 1024 1024" version="1.1" xmlns="http://www.w3.org/2000/svg" p-id="4411" xmlns:xlink="http://www.w3.org/1999/xlink" width="200" height="200"><path d="M676.949333 136.149333a29.184 29.184 0 0 1 40.704 0.256c11.221333 11.093333 11.349333 29.098667 0.256 40.362667l-69.248 68.522667h146.688c79.018667 0.213333 143.061333 63.616 143.317334 141.909333v355.328c-0.213333 78.293333-64.298667 141.738667-143.36 141.909333h-21.376a46.933333 46.933333 0 0 1-47.189334 46.72 46.933333 46.933333 0 0 1-47.146666-46.72H344.32a46.933333 46.933333 0 0 1-47.146667 46.72 46.933333 46.933333 0 0 1-47.189333-46.72h-21.333333C149.546667 884.224 85.504 820.821333 85.333333 742.528V387.2c0.256-78.293333 64.298667-141.696 143.36-141.909333h149.077334L308.565333 176.768a28.501333 28.501333 0 0 1 0.256-40.362667 29.184 29.184 0 0 1 40.746667-0.256l110.165333 109.141334h106.965334z m108.458667 193.706667H232.96c-29.013333 0-52.565333 23.296-52.565333 52.053333l2.773333 365.354667a52.565333 52.565333 0 0 0 52.736 52.053333h552.277333c29.013333 0 52.565333-23.296 52.565334-52.053333l-2.688-365.354667a52.650667 52.650667 0 0 0-52.608-52.053333z m-276.266667 313.002667c16.128 12.544 17.962667 29.013333 43.733334 29.013333 16.213333 0 29.909333-15.530667 29.909333-15.530667a17.664 17.664 0 0 1 12.458667-4.522666c3.925333 0.085333 7.68 1.237333 10.368 3.242666 2.688 1.962667 4.096 4.608 3.882666 7.296a7.68 7.68 0 0 1-1.28 4.992s-18.389333 25.728-57.685333 25.728c-24.234667 0-41.173333-13.184-41.173333-13.184s-16.938667 13.184-41.173334 13.184c-39.424 0-57.642667-25.728-57.642666-25.728a8.021333 8.021333 0 0 1-1.792-4.992c-0.170667-2.688 1.194667-5.333333 3.882666-7.296a18.218667 18.218667 0 0 1 10.368-3.242666c4.992 0 9.685333 1.706667 12.458667 4.522666 0 0 13.738667 15.488 29.866667 15.488 25.813333 0 27.648-16.341333 43.818666-28.970666zM419.072 449.28l13.226667 67.626667-179.2 34.56-13.226667-67.626667 179.2-34.56z m186.581333 0l179.2 34.56-13.226666 67.626667-179.2-34.56 13.226666-67.669334z" fill="#333333" p-id="4412"></path></svg>